<svg width="500" height="194" viewBox="0 0 500 194" fill="none" xmlns="http://www.w3.org/2000/svg">
<g clip-path="url(#clip0_972_3239)">
<path d="M186.72 62.0996C187.87 62.0996 188.51 62.7396 188.51 63.8896V71.3096C188.51 72.4596 187.87 72.9696 186.72 72.9696H146.55V90.2396H183.26C184.28 90.2396 184.79 90.7496 184.79 91.8996V99.4496C184.79 100.6 184.28 101.11 183.26 101.11H146.55V130.02C146.55 131.17 145.91 131.81 144.76 131.81H136.57C135.42 131.81 134.91 131.17 134.91 130.02V63.8896C134.91 62.7396 135.42 62.0996 136.57 62.0996H186.72Z" fill="#DBDBDB"/>
<path d="M234.7 61.0801C254.91 61.0801 270.65 76.1801 270.65 97.0301C270.65 117.75 254.91 132.85 234.7 132.85C214.49 132.85 198.75 117.75 198.75 97.0301C198.75 76.1701 214.49 61.0801 234.7 61.0801ZM210.52 97.0301C210.52 111.36 220.37 121.98 234.7 121.98C249.03 121.98 258.88 111.36 258.88 97.0301C258.88 82.5701 249.03 71.9601 234.7 71.9601C220.37 71.9501 210.52 82.5701 210.52 97.0301Z" fill="#DBDBDB"/>
<path d="M306.47 131.82C305.57 131.82 305.06 131.44 304.68 130.67L275.39 64.0198C274.88 62.9998 275.52 62.0998 276.67 62.0998H285.62C287.03 62.0998 287.92 62.6098 288.31 63.6398L301.87 95.1098L311.59 120.18H312.23L322.21 94.5898L335.39 63.4998C335.77 62.5998 336.54 62.0898 337.56 62.0898H347.41C348.31 62.0898 348.82 62.9898 348.43 63.8798L318.75 130.53C318.37 131.43 317.73 131.81 316.83 131.81H306.47V131.82Z" fill="#DBDBDB"/>
<path d="M411.631 62.0996C412.531 62.0996 413.421 62.8696 413.421 63.8896V71.1796C413.421 72.0796 412.521 72.8396 411.631 72.8396H371.201V90.1096H408.041C409.191 90.1096 409.831 90.7496 409.831 91.8996V99.1896C409.831 100.34 409.191 100.85 408.041 100.85H371.201V120.94H412.901C414.051 120.94 414.561 121.45 414.561 122.47V130.02C414.561 131.17 414.051 131.81 412.901 131.81H361.221C360.071 131.81 359.561 131.17 359.561 130.02V63.8896C359.561 62.7396 360.071 62.0996 361.221 62.0996H411.631Z" fill="#DBDBDB"/>
<path d="M469.45 62.0996C470.09 62.0996 470.47 62.3596 470.73 62.8696L499.9 130.03C500.28 131.05 499.52 131.82 498.49 131.82H489.79C488.51 131.82 487.62 131.18 487.23 130.03L482.11 117.62H443.73L438.23 130.41C437.72 131.31 437.08 131.82 436.18 131.82H426.59C425.44 131.82 425.31 130.92 425.69 130.03L455.12 62.9996C455.38 62.3596 455.89 62.0996 456.65 62.0996H469.45ZM448.34 106.88H477.51L463.7 72.5896H462.04L448.34 106.88Z" fill="#DBDBDB"/>
<path d="M57.2809 25.28L57.2909 25.27L33.4509 0C28.5209 5.91 21.9009 15.76 18.1509 22.3L18.0609 22.29L18.1209 22.35C16.7409 24.76 15.4409 27.22 14.2109 29.71L56.3809 26.48C56.6809 26.09 56.9709 25.68 57.2809 25.28Z" fill="#FFEE52"/>
<path d="M20.8807 172.21L20.8307 172.26L20.9007 172.25C24.7107 178.31 31.9107 187.97 36.7807 193.46L59.2707 167.75L59.3607 167.68C59.2607 167.56 59.1707 167.44 59.0807 167.33L18.4707 168.21C19.2607 169.56 20.0507 170.89 20.8807 172.21Z" fill="#5EC9F3"/>
<path d="M43.1393 49.8702H43.1893L43.1593 49.8302C46.5293 41.4702 50.9293 33.6802 56.3793 26.4902L14.1993 29.7202C14.1393 29.8302 14.0893 29.9502 14.0293 30.0602L39.9993 58.8102C40.9293 55.7602 41.9693 52.7802 43.1393 49.8702Z" fill="#F4A238"/>
<path d="M41.2897 135.46L2.67969 124.95C3.86969 131.45 5.46969 137.72 7.47969 143.78L7.17969 144.02H7.56969C8.16969 145.83 8.79969 147.63 9.47969 149.4C11.8797 155.67 14.7497 161.69 18.0597 167.48L42.1197 137.76C41.8297 136.99 41.5497 136.23 41.2897 135.46Z" fill="#7461A9"/>
<path d="M39.9996 58.8096L14.0396 30.0596C11.9696 34.2996 10.1396 38.6696 8.51961 43.1596C7.41961 46.2296 6.45961 49.3696 5.56961 52.5496L5.35961 52.5596L5.52961 52.6796C3.47961 60.0496 1.99961 67.7296 1.09961 75.7096L39.8896 59.1896C39.9196 59.0596 39.9596 58.9396 39.9996 58.8096Z" fill="#EC8030"/>
<path d="M45.0608 144.16H44.7008C43.7608 142.07 42.9108 139.93 42.1108 137.76L18.0508 167.48C18.1908 167.73 18.3308 167.97 18.4808 168.21L59.0908 167.33C53.2908 160.29 48.5408 152.66 44.8308 144.44L45.0608 144.16Z" fill="#6783C0"/>
<path d="M39.1608 128.61C38.4408 125.97 37.8208 123.27 37.2908 120.53L37.4508 120.41L37.2608 120.37C35.9008 113.35 35.1408 105.98 34.9708 98.2803L2.55078 124.2C2.59078 124.45 2.63078 124.7 2.68078 124.95L41.2908 135.46C40.5108 133.21 39.8008 130.93 39.1608 128.61Z" fill="#3B2E7F"/>
<path d="M34.9495 97.4802L35.1095 97.4102L34.9395 97.3402C34.9395 97.1002 34.9195 96.8602 34.9195 96.6102C34.9095 96.0802 34.8895 95.5602 34.8895 95.0302C34.8895 87.9602 35.3995 81.1802 36.3995 74.6702L36.5995 74.6302L36.4295 74.5102C36.9795 70.9802 37.6595 67.5302 38.4895 64.1602C38.9095 62.4802 39.3695 60.8402 39.8595 59.2002L1.09953 75.7102C1.06953 75.9602 1.04953 76.2202 1.01953 76.4702L34.9595 97.6402C34.9595 97.5902 34.9495 97.5302 34.9495 97.4802Z" fill="#C74897"/>
<path d="M34.96 97.6397L1.02 76.4697C0.79 78.5997 0.59 80.7397 0.44 82.9097L0.29 82.9397L0.43 82.9997C0.16 86.9397 0 90.9397 0 95.0297C0 95.5597 0.03 96.0797 0.03 96.6097C0.08 102.18 0.41 107.59 0.96 112.89L0.89 112.92L0.97 112.94C1.37 116.77 1.9 120.52 2.56 124.21L34.98 98.2797C34.97 98.0597 34.96 97.8497 34.96 97.6397Z" fill="#863582"/>
</g>
<defs>
<clipPath id="clip0_972_3239">
<rect width="500" height="193.47" fill="white"/>
</clipPath>
</defs>
</svg>
