<?xml version="1.0" encoding="utf-8" ?>
<!DOCTYPE svg PUBLIC "-//W3C//DTD SVG 1.1//EN" "http://www.w3.org/Graphics/SVG/1.1/DTD/svg11.dtd">
<svg xmlns="http://www.w3.org/2000/svg" xmlns:xlink="http://www.w3.org/1999/xlink" id="Layer_1" x="0px" y="0px" viewBox="0 0 500 193.47" style="enable-background:new 0 0 500 193.47;" xml:space="preserve"><style type="text/css">.st0{fill:#231F20;} .st1{fill:none;} .st2{fill:#FFEE52;} .st3{fill:#5EC9F3;} .st4{fill:#F4A238;} .st5{fill:#7461A9;} .st6{fill:#EC8030;} .st7{fill:#6783C0;} .st8{fill:#3B2E7F;} .st9{fill:#C74897;} .st10{fill:#863582;}</style><g><g><g><path class="st0" d="M186.72,62.1c1.15,0,1.79,0.64,1.79,1.79v7.42c0,1.15-0.64,1.66-1.79,1.66h-40.17v17.27h36.71 c1.02,0,1.53,0.51,1.53,1.66v7.55c0,1.15-0.51,1.66-1.53,1.66h-36.71v28.91c0,1.15-0.64,1.79-1.79,1.79h-8.19 c-1.15,0-1.66-0.64-1.66-1.79V63.89c0-1.15,0.51-1.79,1.66-1.79H186.72z"/><path class="st0" d="M234.7,61.08c20.21,0,35.95,15.1,35.95,35.95c0,20.72-15.74,35.82-35.95,35.82 c-20.21,0-35.95-15.1-35.95-35.82C198.75,76.17,214.49,61.08,234.7,61.08z M210.52,97.03c0,14.33,9.85,24.95,24.18,24.95 c14.33,0,24.18-10.62,24.18-24.95c0-14.46-9.85-25.07-24.18-25.07C220.37,71.95,210.52,82.57,210.52,97.03z"/><path class="st0" d="M306.47,131.82c-0.9,0-1.41-0.38-1.79-1.15l-29.29-66.65c-0.51-1.02,0.13-1.92,1.28-1.92h8.95 c1.41,0,2.3,0.51,2.69,1.54l13.56,31.47l9.72,25.07h0.64l9.98-25.59l13.18-31.09c0.38-0.9,1.15-1.41,2.17-1.41h9.85 c0.9,0,1.41,0.9,1.02,1.79l-29.68,66.65c-0.38,0.9-1.02,1.28-1.92,1.28H306.47z"/><path class="st0" d="M411.63,62.1c0.9,0,1.79,0.77,1.79,1.79v7.29c0,0.9-0.9,1.66-1.79,1.66H371.2v17.27h36.84 c1.15,0,1.79,0.64,1.79,1.79v7.29c0,1.15-0.64,1.66-1.79,1.66H371.2v20.09h41.7c1.15,0,1.66,0.51,1.66,1.53v7.55 c0,1.15-0.51,1.79-1.66,1.79h-51.68c-1.15,0-1.66-0.64-1.66-1.79V63.89c0-1.15,0.51-1.79,1.66-1.79H411.63z"/><path class="st0" d="M469.45,62.1c0.64,0,1.02,0.26,1.28,0.77l29.17,67.16c0.38,1.02-0.38,1.79-1.41,1.79h-8.7 c-1.28,0-2.17-0.64-2.56-1.79l-5.12-12.41h-38.38l-5.5,12.79c-0.51,0.9-1.15,1.41-2.05,1.41h-9.59c-1.15,0-1.28-0.9-0.9-1.79 L455.12,63c0.26-0.64,0.77-0.9,1.53-0.9H469.45z M448.34,106.88h29.17L463.7,72.59h-1.66L448.34,106.88z"/></g></g><g><path class="st1" d="M0.33,76.04l0.69,0.43c0.03-0.25,0.05-0.51,0.08-0.76L0.33,76.04z"/><path class="st1" d="M35.41,97.92l-0.45-0.28c0,0.21,0.01,0.42,0.02,0.63L35.41,97.92z"/><path class="st1" d="M40.21,59.05L40,58.81c-0.04,0.13-0.08,0.25-0.12,0.38L40.21,59.05z"/><path class="st1" d="M13.76,29.75l0.27,0.3c0.05-0.11,0.11-0.23,0.17-0.34L13.76,29.75z"/><path class="st1" d="M17.44,168.23l1.04-0.02c-0.14-0.24-0.29-0.49-0.43-0.73L17.44,168.23z"/><path class="st1" d="M43.49,136.06l-2.2-0.6c0.27,0.77,0.54,1.54,0.82,2.3L43.49,136.06z"/><path class="st1" d="M1.89,124.73l0.79,0.22c-0.05-0.25-0.08-0.5-0.13-0.75L1.89,124.73z"/><path class="st2" d="M57.28,25.28c0,0,0.01-0.01,0.01-0.01L33.45,0C28.52,5.91,21.9,15.76,18.15,22.3l-0.09-0.01l0.06,0.06 c-1.38,2.41-2.68,4.87-3.91,7.36l42.17-3.23C56.68,26.09,56.97,25.68,57.28,25.28z"/><path class="st3" d="M20.88,172.21l-0.05,0.05l0.07-0.01c3.81,6.06,11.01,15.72,15.88,21.21l22.49-25.71l0.09-0.07 c-0.1-0.12-0.19-0.24-0.28-0.35l-40.61,0.88C19.26,169.56,20.05,170.89,20.88,172.21z"/><path class="st4" d="M43.14,49.87l0.05,0l-0.03-0.04c3.37-8.36,7.77-16.15,13.22-23.34L14.2,29.72c-0.06,0.11-0.11,0.23-0.17,0.34 L40,58.81C40.93,55.76,41.97,52.78,43.14,49.87z"/><path class="st5" d="M41.29,135.46L2.68,124.95c1.19,6.5,2.79,12.77,4.8,18.83l-0.3,0.24l0.39,0c0.6,1.81,1.23,3.61,1.91,5.38 c2.4,6.27,5.27,12.29,8.58,18.08l24.06-29.72C41.83,136.99,41.55,136.23,41.29,135.46z"/><path class="st6" d="M40,58.81L14.04,30.06c-2.07,4.24-3.9,8.61-5.52,13.1c-1.1,3.07-2.06,6.21-2.95,9.39l-0.21,0.01l0.17,0.12 C3.48,60.05,2,67.73,1.1,75.71l38.79-16.52C39.92,59.06,39.96,58.94,40,58.81z"/><path class="st7" d="M45.06,144.16l-0.36,0c-0.94-2.09-1.79-4.23-2.59-6.4l-24.06,29.72c0.14,0.25,0.28,0.49,0.43,0.73l40.61-0.88 c-5.8-7.04-10.55-14.67-14.26-22.89L45.06,144.16z"/><path class="st8" d="M39.16,128.61c-0.72-2.64-1.34-5.34-1.87-8.08l0.16-0.12l-0.19-0.04c-1.36-7.02-2.12-14.39-2.29-22.09 L2.55,124.2c0.04,0.25,0.08,0.5,0.13,0.75l38.61,10.51C40.51,133.21,39.8,130.93,39.16,128.61z"/><path class="st9" d="M34.95,97.48l0.16-0.07l-0.17-0.07c0-0.24-0.02-0.48-0.02-0.73c-0.01-0.53-0.03-1.05-0.03-1.58 c0-7.07,0.51-13.85,1.51-20.36l0.2-0.04l-0.17-0.12c0.55-3.53,1.23-6.98,2.06-10.35c0.42-1.68,0.88-3.32,1.37-4.96L1.1,75.71 c-0.03,0.25-0.05,0.51-0.08,0.76l33.94,21.17C34.96,97.59,34.95,97.53,34.95,97.48z"/><path class="st10" d="M34.96,97.64L1.02,76.47c-0.23,2.13-0.43,4.27-0.58,6.44l-0.15,0.03L0.43,83C0.16,86.94,0,90.94,0,95.03 c0,0.53,0.03,1.05,0.03,1.58c0.05,5.57,0.38,10.98,0.93,16.28l-0.07,0.03l0.08,0.02c0.4,3.83,0.93,7.58,1.59,11.27l32.42-25.93 C34.97,98.06,34.96,97.85,34.96,97.64z"/></g></g></svg>